<svg xmlns="http://www.w3.org/2000/svg" viewBox="0 0 1071.81 696.25"><defs><style>.cls-1{fill:#fff;}.cls-2{fill:none;stroke:#fff;stroke-miterlimit:10;stroke-width:3px;}</style></defs><g id="Layer_2" data-name="Layer 2"><g id="the_line" data-name="the line"><path class="cls-1" d="M68.45,375.77c23.32,0,41.57,18.59,41.57,48.34S91.6,472.78,68.45,472.78c-13.86,0-23.83-6.25-29.07-14.53v13.18H10.48V346.37h28.9v44.11C44.62,382,54.93,375.77,68.45,375.77ZM59.83,401c-10.82,0-20.62,8.29-20.62,23.33S49,447.6,59.83,447.6c11,0,20.79-8.45,20.79-23.49S70.81,401,59.83,401Z" transform="translate(-8.62)"/><path class="cls-1" d="M167.14,472.78c-27.72,0-47.66-18.59-47.66-48.5s19.6-48.51,47.66-48.51c27.55,0,47,18.26,47,47a72.69,72.69,0,0,1-.5,8.45H148.21c1,12.33,8.62,18.08,17.92,18.08,8.11,0,12.67-4.06,15-9.13h30.76C207.36,458.59,190.63,472.78,167.14,472.78Zm-18.76-57.63h36.17c0-10.31-8.11-16.22-17.75-16.22C157.34,398.93,150.07,404.67,148.38,415.15Z" transform="translate(-8.62)"/><path class="cls-1" d="M265.16,375.77c12.51,0,23.32,5.75,29.07,14.37V346.37h28.9V471.43h-28.9V457.91c-5.24,8.62-15.21,14.87-29.07,14.87-23.15,0-41.58-18.93-41.58-48.67S242,375.77,265.16,375.77ZM273.61,401c-10.82,0-20.62,8.12-20.62,23.16s9.8,23.49,20.62,23.49c11,0,20.62-8.28,20.62-23.32S284.6,401,273.61,401Z" transform="translate(-8.62)"/><path class="cls-1" d="M344.08,346.37H373V471.43h-28.9Z" transform="translate(-8.62)"/><path class="cls-1" d="M429.76,375.77c14,0,24,6.42,29.07,14.71V377.12h28.9v94.31h-28.9V458.08c-5.24,8.28-15.21,14.7-29.24,14.7-23,0-41.4-18.93-41.4-48.67S406.61,375.77,429.76,375.77ZM438.21,401c-10.81,0-20.62,8.12-20.62,23.16s9.81,23.49,20.62,23.49c11,0,20.62-8.28,20.62-23.32S449.2,401,438.21,401Z" transform="translate(-8.62)"/><path class="cls-1" d="M638.65,420.22c0-12.34-7.1-19.1-18.09-19.1s-18.08,6.76-18.08,19.1v51.21H573.75V420.22c0-12.34-7.1-19.1-18.08-19.1s-18.09,6.76-18.09,19.1v51.21h-28.9V377.12h28.9V389c5.58-7.6,15.21-12.84,27.55-12.84,14.2,0,25.69,6.25,32.11,17.58A38,38,0,0,1,629,376.11c23.33,0,38.37,14.87,38.37,40.22v55.1H638.65Z" transform="translate(-8.62)"/><path class="cls-1" d="M20.62,561.49h-12V548.81h12V525.49H36v23.32H60.16v12.68H36v54.59c0,9.13,3.38,12.34,12.84,12.34H60.16v13H46.31c-16.4,0-25.69-6.76-25.69-25.35Z" transform="translate(-8.62)"/><path class="cls-1" d="M87.2,516.37h15.38v45.8c6.09-9.81,17.58-15,30.59-15,20.62,0,37,13.19,37,39.72v54.59H155V589c0-18.93-10.31-28.56-25.85-28.56-15.72,0-26.54,9.8-26.54,29.74v51.21H87.2Z" transform="translate(-8.62)"/><path class="cls-1" d="M243.87,643c-26.37,0-45.8-18.59-45.8-48,0-29.23,18.76-47.66,45.8-47.66,26.87,0,44.45,18.93,44.45,44.28a83,83,0,0,1-.51,9.3h-74c1.19,18.76,14.37,29.07,30.09,29.07,13.85,0,22.64-7.1,26-17.07h16.57C281.72,629.77,266.85,643,243.87,643ZM214,588.36h58.48c.17-18.08-13.35-28.05-29.24-28.05C228.15,560.31,215.64,570.28,214,588.36Z" transform="translate(-8.62)"/><path class="cls-1" d="M355.24,547.29c17.24,0,29.07,8.79,34.47,18.43V548.81h15.55v92.62H389.71V624.19c-5.57,10-17.57,18.76-34.64,18.76-24.68,0-43.78-19.43-43.78-48.17C311.29,565.88,330.39,547.29,355.24,547.29Zm3,13.35c-16.9,0-31.27,12.34-31.27,34.14s14.37,34.65,31.27,34.65,31.43-12.67,31.43-34.48C389.71,573.49,375.18,560.64,358.28,560.64Z" transform="translate(-8.62)"/><path class="cls-1" d="M443.11,561.49h-12V548.81h12V525.49h15.38v23.32h24.17v12.68H458.49v54.59c0,9.13,3.38,12.34,12.85,12.34h11.32v13H468.8c-16.39,0-25.69-6.76-25.69-25.35Z" transform="translate(-8.62)"/><path class="cls-1" d="M525.08,641.43H509.7V548.81h15.38v15.05c5.24-10.31,15.21-16.74,29.91-16.74V563h-4c-14.71,0-25.86,6.59-25.86,28.06Z" transform="translate(-8.62)"/><path class="cls-1" d="M621.24,643c-26.37,0-45.8-18.59-45.8-48,0-29.23,18.76-47.66,45.8-47.66,26.87,0,44.45,18.93,44.45,44.28a83,83,0,0,1-.51,9.3h-74c1.18,18.76,14.36,29.07,30.08,29.07,13.86,0,22.65-7.1,26-17.07h16.56C659.1,629.77,644.22,643,621.24,643Zm-29.91-54.59H649.8c.17-18.08-13.35-28.05-29.24-28.05C605.52,560.31,593,570.28,591.33,588.36Z" transform="translate(-8.62)"/><path class="cls-1" d="M1031.85,665.78c-2.62-.48-5.25-1-7.88-1.43-28.85-4.93-48.4-26.93-50-56.1-.8-14.71,1.67-28.6,10-41,9.79-14.68,23.92-22.63,41-25.42,14-2.29,27.82-1.16,40.93,4.6,4.12,1.8,7.82,4.59,11.64,7a2.24,2.24,0,0,1,.75,2c-2.68,7.45-5.47,14.87-8.31,22.51a45.68,45.68,0,0,0-20.31-11c-14.39-3.44-27.61-1.43-38.12,9.91-7.17,7.74-9.25,17.42-8.91,27.67.25,7.6,2.21,14.77,6.81,21,8,10.82,19.23,14.7,32.28,14,11.25-.57,21.14-4.46,29.44-12.59.34.62.69,1.13.93,1.69,2.65,6.16,5.23,12.34,8,18.46a2.54,2.54,0,0,1-.72,3.4c-8.83,8.34-19.46,12.66-31.34,14.3-2.07.28-4.13.65-6.2,1Z" transform="translate(-8.62)"/><path class="cls-1" d="M1051.69,367.42h28.46c0,.57.08,1.05.08,1.52,0,24.66.06,49.32-.13,74-.07,9.46-1.76,18.66-6.88,26.9-5.92,9.52-14.65,15.23-25.3,18a70.08,70.08,0,0,1-37.84-.37c-17.33-5.1-27.31-16.84-29.94-34.67a105.56,105.56,0,0,1-1-14.87c-.1-22.5,0-45,0-67.5v-2.89h28.65v2.89c0,23,0,46,0,69a50.52,50.52,0,0,0,.92,10.13c2,9.51,9.43,15.26,20,15.75,12.81.6,22-7.35,22.59-20.15.46-9.27.39-18.58.42-27.87C1051.73,400.72,1051.69,384.2,1051.69,367.42Z" transform="translate(-8.62)"/><path class="cls-1" d="M841.2,488.05V367.47h78v22.47H869.65v24.67h46.82v22.57H869.58V465h51.17v23Z" transform="translate(-8.62)"/><path class="cls-1" d="M868.09,565.07h-31V542.76h90.31V565H896.51v98.26H868.09Z" transform="translate(-8.62)"/><line class="cls-2" x1="746.19" y1="296.25" x2="746.19" y2="696.25"/><path class="cls-1" d="M131.24,0c.69,1.92,1.24,3.9,2.1,5.73a12.17,12.17,0,0,1,1.09,6.08c-.19,3.29.37,6.64.09,9.93-.42,5.09.89,9.66,3,14.19a66.91,66.91,0,0,1,3,8.21,13.11,13.11,0,0,1,.06,2.81,5.68,5.68,0,0,0,.46,2,6.63,6.63,0,0,0,1.3,1.57q8.25,8.52,16.52,17,9.75,10.08,19.47,20.18,6.31,6.57,12.64,13.12,10.11,10.47,20.23,21,6,6.21,12,12.43c1.12,1.15,1.26,1,2.64.22a3.77,3.77,0,0,0,1.94-3.75c0-4.47.19-8.94.17-13.41,0-2.8-.25-5.59-.44-8.37a17.3,17.3,0,0,0-.5-2.46,3.34,3.34,0,0,1,.44-3.19,1.43,1.43,0,0,0-.08-1.28,6.66,6.66,0,0,1-.84-3.68c0-3.36,0-6.71,0-10.07,0-1.63.25-1.84,1.9-1.87h.72c1.72,0,1.93-.16,2.18-1.84q1.56-10.25,3.09-20.51l1.89-12.44a3.08,3.08,0,0,0-.43-2.62,1.86,1.86,0,0,1,.16-2.62,2.08,2.08,0,0,1,2.63-.44,1.77,1.77,0,0,1,.9,2.37c-1.44,2.82-.51,5.66-.17,8.44.89,7.46,2,14.89,3,22.34.28,2,.46,4.13.62,6.2.07,1,.5,1.38,1.43,1.35,2.58-.07,2.71,0,2.84,2.79.17,3.45.07,6.92,0,10.38a6.13,6.13,0,0,1-.49,2.09,3.67,3.67,0,0,0-.15,3.11,2.55,2.55,0,0,1-.11,1.73,9.85,9.85,0,0,0-.51,3.83c.08,3.74-.2,7.49-.32,11.24-.1,3.11-.22,6.22-.23,9.33,0,1.68,1.18,2.64,2.49,3.42,1.74,1,1.82,1.59.5,3.13a3.54,3.54,0,0,0-.85,1.65c-.25,1.85-.42,3.72-.5,5.59a28.51,28.51,0,0,0,1.2,9.71,2.34,2.34,0,0,1-.27,2.24c-.92,1.38-.74,3-.66,4.54.05,1.15.15,2.31.16,3.46.1,8.43.17,16.86.27,25.29.06,4.75.15,9.51.24,14.26.15,9,.24,18,.52,27.07.09,2.64-.09,5.34,1,7.91s1,2.66.52,5.39a14.74,14.74,0,0,0-.13,2.39v55.64c0,.48,0,1,0,1.44,0,1.58-.22,1.79-1.82,1.79H164.31c-1.72,0-1.88-.19-1.88-2.1,0-20.94-.06-41.89,0-62.83a25.45,25.45,0,0,0-3.58-13,65.19,65.19,0,0,0-13.79-16.31,58,58,0,0,0-11.59-8.26,4.52,4.52,0,0,0-4.87,0c-3.15,2-6.36,4-9.3,6.33a65.94,65.94,0,0,0-14.79,16.06,29,29,0,0,0-5,16.46c.14,20.18,0,40.37,0,60.55,0,.52,0,1,0,1.56,0,1-.42,1.58-1.49,1.53-.36,0-.72,0-1.08,0H14.62c-2.57,0-2.57,0-2.57-2.6q0-28.54,0-57.08a27.25,27.25,0,0,0-.68-3.83,2,2,0,0,1,.2-1.29,11.17,11.17,0,0,0,1.94-6.06q.12-10.37.26-20.74c.06-4.75.15-9.5.23-14.25l.24-14.74.24-14.74c.07-3.75.22-7.5.19-11.26a13.78,13.78,0,0,0-.81-3.05A2.68,2.68,0,0,1,13.7,155a26.69,26.69,0,0,0,.87-12.55,9.06,9.06,0,0,1,.06-2.38,2.78,2.78,0,0,0-.92-2.47c-1.34-1.22-1.18-2.17.34-3.1a5,5,0,0,0,2.62-4.33c.37-6.25-.9-12.42-.73-18.65a.89.89,0,0,1,0-.23,8.62,8.62,0,0,0-.57-5.46.85.85,0,0,1,0-.7c.82-1.36.22-2.62-.2-3.91a6.12,6.12,0,0,1-.39-1.87c0-3.63,0-7.27.17-10.89.07-1.72.39-1.87,2.09-1.9,2.1,0,2-.12,2.24-2.15.6-5.72,1.31-11.42,2-17.13.61-4.88,1.3-9.74,1.92-14.62a5.84,5.84,0,0,0-.56-4.06,1.82,1.82,0,0,1,.52-2.47A2.05,2.05,0,0,1,25.84,46a1.78,1.78,0,0,1,.7,2.43c-1.11,1.64-.65,3.28-.39,5q2.3,15.22,4.58,30.47c.37,2.45.39,2.45,2.83,2.49,1.73,0,2,.23,2,1.92,0,3.59,0,7.18,0,10.77a8,8,0,0,1-.67,2.74,1.57,1.57,0,0,0,.18,1.85,2,2,0,0,1,.36,1.44c-1.79,7.74-.78,15.6-1,23.41,0,1.12,0,2.24,0,3.36s2.32,3.32,3.39,3.22a2,2,0,0,0,1.11-.62q7.49-7.75,14.93-15.56c2.44-2.54,4.87-5.08,7.32-7.6,3.76-3.86,7.55-7.7,11.31-11.57q9.91-10.24,19.8-20.53,6.21-6.42,12.39-12.86,8.18-8.5,16.34-17a2.8,2.8,0,0,0,.72-2.49,9.12,9.12,0,0,1,.33-3.86c1.46-4.1,3.08-8.14,4.7-12.18a12.29,12.29,0,0,0,.84-5.25c-.14-3.46.13-6.94.18-10.41,0-1.87-.09-3.74-.12-5.62a3.7,3.7,0,0,1,.09-1.29Q128.79,5.09,130,2c.28-.7.67-1.35,1-2Z" transform="translate(-8.62)"/></g></g></svg>