<svg id="Layer_3" data-name="Layer 3" xmlns="http://www.w3.org/2000/svg" xmlns:xlink="http://www.w3.org/1999/xlink" viewBox="0 0 500 500"><defs><style>.cls-1{fill:none;}.cls-2{clip-path:url(#clip-path);}.cls-3{fill:#ba0204;}.cls-4{clip-path:url(#clip-path-2);}</style><clipPath id="clip-path"><rect class="cls-1" x="39.77" y="-0.34" width="210.64" height="500.5"/></clipPath><clipPath id="clip-path-2"><rect class="cls-1" x="250.41" y="-0.34" width="210.64" height="500.5"/></clipPath></defs><g id="_Mirror_Repeat_" data-name="&lt;Mirror Repeat&gt;"><g class="cls-2"><path d="M454.29,467a12.17,12.17,0,0,0-2,3.12c-.36,1.23.22,2.48.84,3.79,1.06,2.24-1.52,4.85-.72,6.75.94,2.25,1.46,4.83.61,6.34-1,1.82,0,2.65.14,4,.29,2.94.09,5.92.09,9.14H55.83v-5q0-46.62,0-93.25A10,10,0,0,0,53.73,395c2.8-1.83,2.83-5.17,4.17-7.87.21-.42,2-115.25,2.22-127.64a6.57,6.57,0,0,0-2.43-5.12c2.32-3,3.65-17.31,2.52-20.12-.91-2.25-.19-5.16-.19-7.78l-.28-.41c-.92-1.37-2.89-1.86-3-4.06-.08-2.46,2.39-2.08,3.46-3.22.84-.88,1.73-1.73,2.92-2.92,0-5.39.81-11.26-.23-16.78-1.06-5.7-.44-11.28-.78-16.9-.08-1.28-.6-2.75.74-3.91.22-.2-.45-1.36-.64-2.09-.54-2.12-2.51-4.14-.24-6.49.36-.37-.27-1.86-.65-2.75A23.87,23.87,0,0,1,60,156.86c.21-3.13-.06-6.29.08-9.43.09-2.1.54-4.18.85-6.43h6.54c-.8-4.45,4.82-41.14,5.15-42.92.31-1.61,2.08-16.2,1.65-20s-1.33.69,1.67-2.5a11.44,11.44,0,0,1,1.66,2.5c.39.61,9.14,61.52,9.6,62.48,2.22.46,5-.1,7.28.39.06,4.36,0,8.37.21,12.35.25,3.69-.57,6.92-.09,10.8-1.33,1.07-1.09,2.48-2.3,3.45.28,1.43,2.3.75,2,3.4a19.43,19.43,0,0,1-.75,3.72c-2.1,5.74-.67,41.11-1.08,42.28L98,220.9c1-1,136-140.94,136.6-141.72a2.56,2.56,0,0,0,0-3.24c-2.3-4,11.27-29.81,10.17-31.85s1.5-29.24-.89-30.84c2.77,0,4.49-13.59,6.52-13.59s-.84,13.46,1.44,13.46c0,2.21.66,4.24-1,6,0,4-.46,8.14,1.62,11.91.23.41.27.93.48,1.36,2.29,4.72,2.29,4.71,2.1,9.8,0,.67,0,1.35,0,2.05,2.16.51,3.57,1.49,3.15,3.89-.3,1.79,0,3.49-.83,5.42-1.17,2.59.31,5.51,1.62,8,2.14,4.19,1.19,8.64,1.14,13-1.64,1.38-.57,3.25-1,5.06,3.67,3.22,140.11,137.68,142.3,139.64.21-2.91,4.57-8.87,4.66-10.65.1-2-1.39-28.5-1.15-36.42a4,4,0,0,0-.5-1.88,4.24,4.24,0,0,1,0-4.27c.82-1.59-1.67-7.28-2.36-8.56-.79-1.47.66-2.59.62-3.63-.11-3.72,1.11-7.56-.68-11.19-.21-.43.14-3.82-.37-4.46,1.35-3.59,3.94-3.91,7.28-3.42.77-3.16,1.72-6.26,2.25-9.43.39-2.36,4.95-40.57,5.3-45.49.1-1.41.05-2.71-1.31-3.66-1.19-.84-1.09-2.08-.43-3.18,1-1.6,3-2.7,4.27-2.25a17.48,17.48,0,0,1,2.74,1.62c-.42,1.54.54,3.33-.88,5.16-.68.87-.55,2.81-.13,4,1.65,4.88,3.54,19.58,3.94,21.9.63,3.75,4.6,26.23,4.44,29.66-.1,2.12,7.18,2.13,7.27,4,.27,6,1.65,11.88,1.09,17.91-.21,2.17.54,4.51-1.82,6.12-.41.28-.4,1.66-.13,2.37a27.74,27.74,0,0,0,2.14,3.73c-2,1.47-2.55,3.57-2.37,6.13.24,3.47,1,19.24,1.09,23.66s0,9.06,0,13.72l5.25,4.49c0,.5.43,2.1-.07,2.48-3,2.25-2.06,5.34-2,8.13s-.65,5.72.63,8.62c.7,1.62.46,3.75.3,5.61a10.61,10.61,0,0,0,2.35,7.63,11.83,11.83,0,0,0-2.35,7.93c.15,7.16.67,95.19,1.86,96.2a2.05,2.05,0,0,1,.24,1.92c-2.15,4.1-.73,8.47-.9,12.69-.1,2.48,2.29,5,0,7.57a12.75,12.75,0,0,1,.93,1.08,39.65,39.65,0,0,1,3.09,6.05c.77,2.29,2.37,3.93,3.63,5.83a4.11,4.11,0,0,1,.17,4.27.89.89,0,0,1-.36.36c-1.46.87-1.28,2.29-1.28,3.67,0,12.4,1.74,59.53,2.29,63.69C450.66,461.77,452.83,464.24,454.29,467Z"/><line x1="80.2" y1="91.77" x2="79.99" y2="98.02"/><circle cx="418.69" cy="74.34" r="3.75"/><circle cx="76.33" cy="77.67" r="3.75"/><path d="M424.35,101.19,427,114.68Z"/><rect class="cls-3" x="199.2" y="391.36" width="103.29" height="108.8"/><path class="cls-3" d="M302.49,391.78c0-27.07-43.32-60.63-51.65-60.63s-51.64,33.56-51.64,60.63,23.12,49,51.64,49S302.49,418.84,302.49,391.78Z"/></g></g><g id="_Mirror_Repeat_2" data-name="&lt;Mirror Repeat&gt;"><g class="cls-4"><path d="M46.53,467a12.17,12.17,0,0,1,2,3.12c.36,1.23-.22,2.48-.84,3.79-1.07,2.24,1.52,4.85.72,6.75-.95,2.25-1.46,4.83-.62,6.34,1,1.82,0,2.65-.14,4-.28,2.94-.09,5.92-.09,9.14H445v-5q0-46.62,0-93.25a10,10,0,0,1,2.13-6.82c-2.8-1.83-2.83-5.17-4.16-7.87-.21-.42-2-115.25-2.22-127.64a6.59,6.59,0,0,1,2.42-5.12c-2.32-3-3.64-17.31-2.51-20.12.91-2.25.18-5.16.18-7.78l.28-.41c.93-1.37,2.89-1.86,3-4.06.07-2.46-2.4-2.08-3.47-3.22-.84-.88-1.72-1.73-2.91-2.92,0-5.39-.81-11.26.22-16.78,1.06-5.7.45-11.28.78-16.9.08-1.28.6-2.75-.74-3.91-.22-.2.45-1.36.64-2.09.55-2.12,2.52-4.14.24-6.49-.36-.37.28-1.86.66-2.75a24,24,0,0,0,1.39-10.1c-.21-3.13.06-6.29-.08-9.43-.1-2.1-.55-4.18-.86-6.43h-6.53c.79-4.45-4.82-41.14-5.16-42.92-.3-1.61-2.07-16.2-1.65-20s1.34.69-1.66-2.5a11.48,11.48,0,0,0-1.67,2.5c-.39.61-9.13,61.52-9.59,62.48-2.22.46-5-.1-7.29.39-.06,4.36,0,8.37-.21,12.35-.24,3.69.58,6.92.09,10.8,1.33,1.07,1.09,2.48,2.3,3.45-.27,1.43-2.3.75-2,3.4a21.1,21.1,0,0,0,.75,3.72c2.1,5.74.68,41.11,1.08,42.28l-5.57,3.94c-1-1-136-140.94-136.61-141.72a2.59,2.59,0,0,1,0-3.24c2.3-4-11.27-29.81-10.16-31.85s-1.5-29.24.88-30.84c-2.77,0-4.48-13.59-6.52-13.59s.84,13.46-1.43,13.46c0,2.21-.66,4.24,1,6,0,4,.46,8.14-1.62,11.91-.23.41-.28.93-.49,1.36-2.28,4.72-2.28,4.71-2.09,9.8,0,.67,0,1.35,0,2.05-2.16.51-3.56,1.49-3.15,3.89.31,1.79,0,3.49.84,5.42,1.17,2.59-.32,5.51-1.62,8-2.14,4.19-1.19,8.64-1.15,13,1.65,1.38.58,3.25,1,5.06C238,82.86,101.53,217.32,99.33,219.28c-.2-2.91-4.56-8.87-4.65-10.65-.11-2,1.39-28.5,1.14-36.42a4.06,4.06,0,0,1,.5-1.88,4.21,4.21,0,0,0,0-4.27c-.83-1.59,1.67-7.28,2.36-8.56.79-1.47-.66-2.59-.63-3.63.12-3.72-1.11-7.56.69-11.19.21-.43-.14-3.82.37-4.46-1.35-3.59-3.95-3.91-7.28-3.42-.78-3.16-1.72-6.26-2.25-9.43-.4-2.36-5-40.57-5.3-45.49-.11-1.41-.06-2.71,1.31-3.66,1.19-.84,1.09-2.08.42-3.18-1-1.6-3-2.7-4.26-2.25A16.62,16.62,0,0,0,79,72.41c.42,1.54-.55,3.33.87,5.16.69.87.55,2.81.13,4-1.65,4.88-3.54,19.58-3.93,21.9-.64,3.75-4.6,26.23-4.45,29.66.1,2.12-7.17,2.13-7.26,4-.28,6-1.65,11.88-1.09,17.91.2,2.17-.54,4.51,1.82,6.12.41.28.39,1.66.12,2.37a27.56,27.56,0,0,1-2.13,3.73c2,1.47,2.55,3.57,2.37,6.13-.24,3.47-1,19.24-1.09,23.66s0,9.06,0,13.72l-5.24,4.49c0,.5-.43,2.1.07,2.48,2.95,2.25,2.06,5.34,2,8.13s.64,5.72-.63,8.62c-.71,1.62-.46,3.75-.31,5.61a10.56,10.56,0,0,1-2.34,7.63,11.88,11.88,0,0,1,2.35,7.93c-.16,7.16-.68,95.19-1.86,96.2a2,2,0,0,0-.24,1.92c2.14,4.1.72,8.47.89,12.69.11,2.48-2.29,5,0,7.57a14.29,14.29,0,0,0-.94,1.08A39.59,39.59,0,0,0,55,381.23c-.77,2.29-2.38,3.93-3.64,5.83a4.11,4.11,0,0,0-.17,4.27.92.92,0,0,0,.37.36c1.46.87,1.27,2.29,1.27,3.67,0,12.4-1.74,59.53-2.29,63.69C50.16,461.77,48,464.24,46.53,467Z"/><line x1="420.61" y1="91.77" x2="420.83" y2="98.02"/><circle cx="82.13" cy="74.34" r="3.75"/><circle cx="424.48" cy="77.67" r="3.75"/><path d="M76.46,101.19l-2.61,13.49Z"/><rect class="cls-3" x="198.33" y="391.36" width="103.29" height="108.8" transform="translate(499.94 891.52) rotate(180)"/><path class="cls-3" d="M198.33,391.78c0-27.07,43.31-60.63,51.64-60.63s51.65,33.56,51.65,60.63-23.13,49-51.65,49S198.33,418.84,198.33,391.78Z"/></g></g></svg>