<svg xmlns="http://www.w3.org/2000/svg" xmlns:xlink="http://www.w3.org/1999/xlink" viewBox="0 0 659 697"><defs><style>.cls-1{fill:none;}.cls-2{stroke:#000;stroke-miterlimit:10;}.cls-3{clip-path:url(#clip-path);}.cls-4{fill:#ba0204;}.cls-5{clip-path:url(#clip-path-2);}</style><clipPath id="clip-path"><rect class="cls-1" x="-8.85" y="0.81" width="128.93" height="306.35"/></clipPath><clipPath id="clip-path-2"><rect class="cls-1" x="120.08" y="0.81" width="128.93" height="306.35"/></clipPath></defs><g id="the_line" data-name="the line"><path class="cls-2" d="M60.14,376c23.32,0,41.58,18.59,41.58,48.34S83.29,473,60.14,473c-13.86,0-23.83-6.25-29.07-14.53v13.18H2.17V346.61h28.9v44.12C36.31,382.28,46.62,376,60.14,376ZM51.52,401.2c-10.82,0-20.62,8.29-20.62,23.33s9.8,23.32,20.62,23.32c11,0,20.79-8.45,20.79-23.49S62.51,401.2,51.52,401.2Z"/><path class="cls-2" d="M158.83,473c-27.71,0-47.66-18.59-47.66-48.5S130.78,376,158.83,376c27.55,0,47,18.26,47,47a72.75,72.75,0,0,1-.51,8.45H139.9c1,12.33,8.62,18.08,17.92,18.08,8.11,0,12.67-4.06,15-9.13h30.76C199.06,458.84,182.32,473,158.83,473ZM140.07,415.4h36.17c0-10.31-8.11-16.22-17.74-16.22C149,399.18,141.76,404.92,140.07,415.4Z"/><path class="cls-2" d="M256.85,376c12.51,0,23.32,5.75,29.07,14.37V346.61h28.9V471.68h-28.9V458.16c-5.24,8.62-15.21,14.87-29.07,14.87-23.15,0-41.57-18.93-41.57-48.67S233.7,376,256.85,376Zm8.45,25.18c-10.81,0-20.62,8.12-20.62,23.16s9.81,23.49,20.62,23.49c11,0,20.62-8.28,20.62-23.32S276.29,401.2,265.3,401.2Z"/><path class="cls-2" d="M335.77,346.61h28.9V471.68h-28.9Z"/><path class="cls-2" d="M421.46,376c14,0,24,6.42,29.07,14.71V377.37h28.89v94.31H450.53V458.33c-5.24,8.28-15.22,14.7-29.24,14.7-23,0-41.41-18.93-41.41-48.67S398.3,376,421.46,376Zm8.45,25.18c-10.82,0-20.62,8.12-20.62,23.16s9.8,23.49,20.62,23.49c11,0,20.62-8.28,20.62-23.32S440.89,401.2,429.91,401.2Z"/><path class="cls-2" d="M630.34,420.47c0-12.34-7.1-19.1-18.08-19.1s-18.09,6.76-18.09,19.1v51.21H565.44V420.47c0-12.34-7.1-19.1-18.08-19.1s-18.08,6.76-18.08,19.1v51.21h-28.9V377.37h28.9V389.2c5.57-7.6,15.21-12.84,27.54-12.84,14.2,0,25.69,6.25,32.11,17.58a38,38,0,0,1,31.78-17.58c23.32,0,38.36,14.87,38.36,40.22v55.1H630.34Z"/><path class="cls-2" d="M12.31,561.74H.31V549.06h12V525.74H27.69v23.32H51.86v12.68H27.69v54.59c0,9.13,3.38,12.34,12.84,12.34H51.86v13H38c-16.4,0-25.69-6.76-25.69-25.35Z"/><path class="cls-2" d="M78.89,516.61H94.27v45.81c6.09-9.81,17.58-15,30.59-15,20.62,0,37,13.19,37,39.72v54.59H146.67V589.29c0-18.93-10.31-28.56-25.86-28.56-15.72,0-26.54,9.8-26.54,29.74v51.21H78.89Z"/><path class="cls-2" d="M235.56,643.2c-26.37,0-45.8-18.59-45.8-48,0-29.23,18.76-47.66,45.8-47.66,26.87,0,44.45,18.93,44.45,44.28a83,83,0,0,1-.51,9.3h-74c1.18,18.76,14.36,29.07,30.08,29.07,13.86,0,22.65-7.1,26-17.07h16.56C273.42,630,258.54,643.2,235.56,643.2Zm-29.92-54.59h58.48c.17-18.08-13.35-28.05-29.24-28.05C219.84,560.56,207.33,570.53,205.64,588.61Z"/><path class="cls-2" d="M346.93,547.54c17.24,0,29.07,8.79,34.48,18.43V549.06H397v92.62H381.41V624.44c-5.58,10-17.58,18.76-34.65,18.76C322.09,643.2,303,623.77,303,595,303,566.13,322.09,547.54,346.93,547.54Zm3,13.35c-16.9,0-31.27,12.34-31.27,34.14s14.37,34.65,31.27,34.65S381.41,617,381.41,595.2C381.41,573.74,366.87,560.89,350,560.89Z"/><path class="cls-2" d="M434.81,561.74h-12V549.06h12V525.74h15.38v23.32h24.16v12.68H450.19v54.59c0,9.13,3.38,12.34,12.84,12.34h11.32v13H460.5c-16.4,0-25.69-6.76-25.69-25.35Z"/><path class="cls-2" d="M516.77,641.68H501.39V549.06h15.38v15.05C522,553.8,532,547.37,546.69,547.37v15.89h-4.06c-14.7,0-25.86,6.59-25.86,28.06Z"/><path class="cls-2" d="M612.93,643.2c-26.36,0-45.8-18.59-45.8-48,0-29.23,18.76-47.66,45.8-47.66,26.87,0,44.45,18.93,44.45,44.28a83,83,0,0,1-.51,9.3h-74c1.18,18.76,14.36,29.07,30.08,29.07,13.86,0,22.65-7.1,26-17.07h16.56C650.79,630,635.92,643.2,612.93,643.2ZM583,588.61h58.47c.17-18.08-13.35-28.05-29.23-28.05C597.21,560.56,584.71,570.53,583,588.61Z"/><g id="_Mirror_Repeat_" data-name="&lt;Mirror Repeat&gt;"><g class="cls-3"><path d="M244.87,286.87a7.17,7.17,0,0,0-1.22,1.91,3.37,3.37,0,0,0,.51,2.32c.65,1.37-.93,3-.44,4.13.58,1.38.9,3,.38,3.88-.63,1.12,0,1.62.09,2.44.17,1.8.05,3.62.05,5.59H1v-3.08Q1,275.53,1,247a6.05,6.05,0,0,0-1.3-4.18c1.71-1.12,1.73-3.16,2.54-4.82.13-.26,1.24-70.54,1.36-78.13a4,4,0,0,0-1.48-3.13c1.42-1.86,2.23-10.59,1.54-12.31-.56-1.38-.11-3.16-.11-4.77l-.18-.25c-.56-.84-1.77-1.13-1.8-2.48-.05-1.51,1.46-1.28,2.12-2,.51-.54,1.05-1.06,1.78-1.79,0-3.3.5-6.89-.14-10.27s-.27-6.91-.48-10.35c0-.78-.36-1.68.46-2.39.13-.12-.28-.83-.39-1.28-.34-1.3-1.54-2.53-.15-4,.22-.23-.17-1.14-.4-1.68A14.6,14.6,0,0,1,3.52,97c.13-1.91,0-3.85,0-5.77.06-1.28.33-2.56.52-3.94h4C7.6,84.6,11,62.15,11.25,61.06s1.26-9.92,1-12.24-.81.42,1-1.53a6.8,6.8,0,0,1,1,1.53c.24.37,5.6,37.65,5.88,38.24,1.36.29,3-.06,4.46.24,0,2.67,0,5.12.13,7.56.14,2.26-.36,4.24-.06,6.61-.81.65-.67,1.52-1.41,2.11.17.88,1.41.46,1.21,2.08a12.42,12.42,0,0,1-.46,2.28c-1.29,3.51-.41,25.17-.66,25.88l3.41,2.41c.61-.61,83.26-86.27,83.62-86.75a1.57,1.57,0,0,0,0-2c-1.41-2.43,6.9-18.24,6.22-19.49s.92-17.9-.54-18.88c1.7,0,2.75-8.32,4-8.32s-.51,8.24.88,8.24c0,1.35.4,2.6-.6,3.66,0,2.47-.28,5,1,7.28.14.26.17.57.3.84,1.4,2.88,1.4,2.88,1.28,6,0,.42,0,.83,0,1.26,1.32.31,2.18.91,1.93,2.38-.19,1.09,0,2.14-.51,3.32-.72,1.58.19,3.37,1,4.93,1.31,2.56.72,5.28.7,8-1,.85-.35,2-.59,3.1,2.24,2,85.76,84.27,87.1,85.47.13-1.78,2.79-5.43,2.85-6.52s-.85-17.44-.7-22.29a2.36,2.36,0,0,0-.31-1.15,2.61,2.61,0,0,1,0-2.62c.51-1-1-4.45-1.44-5.23s.4-1.59.38-2.23c-.07-2.27.68-4.62-.42-6.85-.13-.26.09-2.34-.23-2.73.83-2.19,2.42-2.39,4.46-2.09.47-1.93,1-3.83,1.38-5.77.24-1.44,3-24.84,3.24-27.85a2.16,2.16,0,0,0-.8-2.24,1.33,1.33,0,0,1-.26-1.94c.59-1,1.84-1.66,2.61-1.38a10.4,10.4,0,0,1,1.68,1c-.26.94.33,2-.54,3.16a3.15,3.15,0,0,0-.08,2.48c1,3,2.17,12,2.41,13.4.39,2.29,2.82,16.05,2.72,18.15-.06,1.3,4.39,1.3,4.45,2.47.17,3.65,1,7.26.67,11-.13,1.33.33,2.77-1.12,3.75-.25.17-.24,1-.08,1.45a16.75,16.75,0,0,0,1.31,2.28,4,4,0,0,0-1.45,3.76c.15,2.12.63,11.78.67,14.48s0,5.55,0,8.4l3.21,2.75c0,.3.26,1.28,0,1.52-1.81,1.37-1.26,3.26-1.2,5s-.4,3.5.38,5.28a7.55,7.55,0,0,1,.19,3.43,6.5,6.5,0,0,0,1.43,4.67,7.27,7.27,0,0,0-1.43,4.85c.09,4.39.41,58.27,1.13,58.89a1.23,1.23,0,0,1,.15,1.17c-1.31,2.51-.44,5.19-.55,7.77-.06,1.52,1.41,3.06,0,4.63a7.22,7.22,0,0,1,.57.67,23.9,23.9,0,0,1,1.89,3.7,15.42,15.42,0,0,0,2.23,3.57,2.51,2.51,0,0,1,.1,2.61.52.52,0,0,1-.22.22c-.9.54-.78,1.4-.78,2.25,0,7.59,1.06,36.44,1.4,39C242.65,283.66,244,285.18,244.87,286.87Z"/><line x1="15.9" y1="57.19" x2="15.76" y2="61.02"/><circle cx="223.08" cy="46.52" r="2.29"/><circle cx="13.53" cy="48.56" r="2.29"/><path d="M226.55,63l1.6,8.25Z"/><rect class="cls-4" x="88.73" y="240.57" width="63.22" height="66.6"/><path class="cls-4" d="M152,240.82c0-16.56-26.52-37.11-31.61-37.11s-31.62,20.55-31.62,37.11,14.16,30,31.62,30S152,257.39,152,240.82Z"/></g></g><g id="_Mirror_Repeat_2" data-name="&lt;Mirror Repeat&gt;"><g class="cls-5"><path d="M-4.71,286.87a7.17,7.17,0,0,1,1.22,1.91A3.38,3.38,0,0,1-4,291.1c-.65,1.37.93,3,.45,4.13-.58,1.38-.9,3-.38,3.88.63,1.12,0,1.62-.09,2.44-.17,1.8,0,3.62,0,5.59H239.18v-3.08q0-28.53,0-57.07a6.11,6.11,0,0,1,1.31-4.18c-1.71-1.12-1.73-3.16-2.55-4.82-.12-.26-1.23-70.54-1.36-78.13a4,4,0,0,1,1.49-3.13c-1.42-1.86-2.23-10.59-1.54-12.31.56-1.38.11-3.16.11-4.77a2.2,2.2,0,0,0,.17-.25c.57-.84,1.77-1.13,1.81-2.48,0-1.51-1.46-1.28-2.12-2-.51-.54-1.05-1.06-1.78-1.79,0-3.3-.5-6.89.13-10.27s.28-6.91.48-10.35c0-.78.37-1.68-.45-2.39-.14-.12.27-.83.39-1.28.34-1.3,1.54-2.53.15-4-.22-.23.17-1.14.4-1.68a14.6,14.6,0,0,0,.85-6.19c-.13-1.91,0-3.85,0-5.77-.06-1.28-.33-2.56-.52-3.94h-4c.49-2.72-2.95-25.17-3.16-26.26s-1.27-9.92-1-12.24.82.42-1-1.53a7.16,7.16,0,0,0-1,1.53c-.23.37-5.59,37.65-5.87,38.24-1.36.29-3-.06-4.46.24,0,2.67,0,5.12-.13,7.56-.14,2.26.36,4.24.06,6.61.81.65.67,1.52,1.41,2.11-.17.88-1.41.46-1.21,2.08a12.42,12.42,0,0,0,.46,2.28c1.28,3.51.41,25.17.66,25.88l-3.41,2.41c-.61-.61-83.26-86.27-83.62-86.75a1.57,1.57,0,0,1,0-2c1.41-2.43-6.9-18.24-6.22-19.49s-.92-17.9.54-18.88c-1.7,0-2.75-8.32-4-8.32s.51,8.24-.88,8.24c0,1.35-.41,2.6.6,3.66,0,2.47.28,5-1,7.28-.15.26-.17.57-.3.84-1.4,2.88-1.4,2.88-1.28,6,0,.42,0,.83,0,1.26-1.32.31-2.18.91-1.93,2.38.19,1.09,0,2.14.51,3.32.72,1.58-.19,3.37-1,4.93-1.31,2.56-.73,5.28-.7,8,1,.85.35,2,.59,3.1-2.24,2-85.76,84.27-87.1,85.47-.13-1.78-2.8-5.43-2.85-6.52s.85-17.44.7-22.29a2.46,2.46,0,0,1,.3-1.15,2.59,2.59,0,0,0,0-2.62c-.51-1,1-4.45,1.44-5.23s-.4-1.59-.38-2.23c.07-2.27-.68-4.62.42-6.85.13-.26-.09-2.34.22-2.73-.82-2.19-2.41-2.39-4.45-2.09-.48-1.93-1.06-3.83-1.38-5.77-.24-1.44-3-24.84-3.25-27.85a2.18,2.18,0,0,1,.81-2.24,1.33,1.33,0,0,0,.26-1.94c-.59-1-1.84-1.66-2.61-1.38a10.4,10.4,0,0,0-1.68,1c.26.94-.33,2,.54,3.16A3.19,3.19,0,0,1,15.78,51c-1,3-2.17,12-2.41,13.4-.39,2.29-2.82,16.05-2.72,18.15.06,1.3-4.4,1.3-4.45,2.47-.17,3.65-1,7.26-.67,11,.13,1.33-.33,2.77,1.11,3.75.26.17.25,1,.08,1.45a16.58,16.58,0,0,1-1.3,2.28,4,4,0,0,1,1.45,3.76c-.15,2.12-.63,11.78-.67,14.48s0,5.55,0,8.4L3,132.82c0,.3-.26,1.28,0,1.52,1.81,1.37,1.26,3.26,1.2,5s.4,3.5-.38,5.28A7.41,7.41,0,0,0,3.65,148a6.46,6.46,0,0,1-1.44,4.67,7.22,7.22,0,0,1,1.44,4.85c-.09,4.39-.41,58.27-1.14,58.89a1.23,1.23,0,0,0-.14,1.17c1.31,2.51.44,5.19.55,7.77.06,1.52-1.41,3.06,0,4.63a7.22,7.22,0,0,0-.57.67,23.9,23.9,0,0,0-1.89,3.7,15.77,15.77,0,0,1-2.23,3.57,2.51,2.51,0,0,0-.1,2.61.52.52,0,0,0,.22.22c.89.54.78,1.4.78,2.25,0,7.59-1.06,36.44-1.4,39C-2.49,283.66-3.82,285.18-4.71,286.87Z"/><line x1="224.26" y1="57.19" x2="224.39" y2="61.02"/><circle cx="17.07" cy="46.52" r="2.29"/><circle cx="226.63" cy="48.56" r="2.29"/><path d="M13.61,63,12,71.21Z"/><rect class="cls-4" x="88.2" y="240.57" width="63.22" height="66.6" transform="translate(239.62 547.73) rotate(180)"/><path class="cls-4" d="M88.2,240.82c0-16.56,26.51-37.11,31.61-37.11s31.61,20.55,31.61,37.11-14.15,30-31.61,30S88.2,257.39,88.2,240.82Z"/></g></g></g></svg>