<svg xmlns="http://www.w3.org/2000/svg" xmlns:xlink="http://www.w3.org/1999/xlink" viewBox="0 0 1072 697"><defs><style>.cls-1,.cls-6{fill:none;}.cls-2{clip-path:url(#clip-path);}.cls-3{fill:#fff;}.cls-4{fill:#ba0204;}.cls-5{clip-path:url(#clip-path-2);}.cls-6{stroke:#fff;stroke-miterlimit:10;stroke-width:3px;}</style><clipPath id="clip-path"><rect class="cls-1" x="-6.18" y="-0.21" width="128.93" height="306.35"/></clipPath><clipPath id="clip-path-2"><rect class="cls-1" x="122.75" y="-0.21" width="128.93" height="306.35"/></clipPath></defs><g id="the_line" data-name="the line"><g id="_Mirror_Repeat_" data-name="&lt;Mirror Repeat&gt;"><g class="cls-2"><path class="cls-3" d="M247.54,285.85a7.28,7.28,0,0,0-1.22,1.9,3.41,3.41,0,0,0,.51,2.32c.66,1.37-.93,3-.44,4.14.58,1.38.9,3,.38,3.87-.63,1.12,0,1.63.09,2.44.17,1.8,0,3.63,0,5.6H3.65V303q0-28.55,0-57.08a6,6,0,0,0-1.3-4.17c1.71-1.12,1.73-3.17,2.55-4.82.12-.26,1.23-70.54,1.35-78.13a4,4,0,0,0-1.48-3.13c1.42-1.87,2.23-10.6,1.54-12.32-.56-1.38-.11-3.16-.11-4.76L6,138.38c-.56-.84-1.76-1.14-1.8-2.49s1.46-1.27,2.12-2c.51-.55,1-1.07,1.78-1.79,0-3.3.5-6.89-.14-10.28s-.27-6.9-.47-10.34c0-.78-.37-1.68.45-2.4.14-.11-.28-.82-.39-1.27-.34-1.3-1.54-2.54-.15-4,.22-.22-.17-1.14-.4-1.68A14.55,14.55,0,0,1,6.19,96c.13-1.92,0-3.85,0-5.77.06-1.28.33-2.56.52-3.94h4c-.49-2.72,3-25.18,3.16-26.27s1.27-9.91,1-12.24-.82.43,1-1.53a6.75,6.75,0,0,1,1,1.53c.24.38,5.6,37.66,5.88,38.25,1.36.28,3-.06,4.46.24,0,2.67,0,5.12.13,7.55.14,2.27-.36,4.24-.06,6.62-.81.65-.67,1.52-1.41,2.11.17.88,1.41.46,1.21,2.08a12.77,12.77,0,0,1-.46,2.28c-1.29,3.51-.41,25.16-.66,25.88l3.41,2.41c.61-.61,83.26-86.27,83.62-86.75a1.57,1.57,0,0,0,0-2C111.67,44,120,28.23,119.3,27s.92-17.89-.54-18.87c1.7,0,2.75-8.32,4-8.32S122.24,8,123.63,8c0,1.35.4,2.6-.6,3.65,0,2.47-.28,5,1,7.29.14.26.17.57.3.84,1.4,2.88,1.4,2.88,1.28,6,0,.41,0,.83,0,1.26,1.32.31,2.18.91,1.93,2.38-.19,1.09,0,2.14-.51,3.32-.72,1.58.19,3.37,1,4.92,1.31,2.57.73,5.29.7,8-1,.84-.35,2-.59,3.1,2.24,2,85.76,84.27,87.1,85.47.13-1.78,2.8-5.43,2.85-6.52s-.85-17.45-.7-22.29a2.33,2.33,0,0,0-.31-1.15,2.61,2.61,0,0,1,0-2.62c.51-1-1-4.45-1.44-5.24s.4-1.58.38-2.22c-.07-2.28.68-4.63-.42-6.85-.13-.26.09-2.34-.22-2.73.82-2.2,2.41-2.39,4.45-2.09.48-1.93,1.06-3.83,1.38-5.77.24-1.45,3-24.84,3.24-27.85a2.16,2.16,0,0,0-.8-2.24,1.33,1.33,0,0,1-.26-1.94c.59-1,1.84-1.66,2.61-1.38a9.71,9.71,0,0,1,1.68,1c-.26.94.33,2-.54,3.16a3.12,3.12,0,0,0-.08,2.47c1,3,2.17,12,2.41,13.4.39,2.3,2.82,16.06,2.72,18.16-.06,1.29,4.4,1.3,4.45,2.46.17,3.66,1,7.27.67,11-.13,1.33.33,2.76-1.12,3.75-.25.17-.24,1-.07,1.45a17.19,17.19,0,0,0,1.3,2.28,3.94,3.94,0,0,0-1.45,3.75c.15,2.13.63,11.78.67,14.49s0,5.54,0,8.4l3.21,2.74c0,.31.26,1.29,0,1.52-1.81,1.38-1.26,3.27-1.2,5s-.4,3.5.38,5.28a7.41,7.41,0,0,1,.19,3.43,6.51,6.51,0,0,0,1.43,4.67,7.25,7.25,0,0,0-1.43,4.85c.09,4.38.41,58.27,1.13,58.88a1.25,1.25,0,0,1,.15,1.18c-1.31,2.51-.44,5.18-.55,7.77-.06,1.52,1.41,3.05,0,4.63a8.18,8.18,0,0,1,.57.66,24.36,24.36,0,0,1,1.89,3.7,15.55,15.55,0,0,0,2.23,3.57,2.52,2.52,0,0,1,.1,2.62.52.52,0,0,1-.22.22c-.9.53-.78,1.4-.78,2.25,0,7.59,1.06,36.44,1.4,39C245.32,282.64,246.65,284.16,247.54,285.85Z"/><line x1="18.57" y1="56.17" x2="18.44" y2="59.99"/><circle cx="225.75" cy="45.5" r="2.29"/><circle class="cls-3" cx="16.2" cy="47.54" r="2.29"/><path d="M229.22,61.94l1.6,8.25Z"/><rect class="cls-4" x="91.41" y="239.55" width="63.22" height="66.6"/><path class="cls-4" d="M154.63,239.8c0-16.56-26.51-37.11-31.61-37.11S91.41,223.24,91.41,239.8s14.15,30,31.61,30S154.63,256.37,154.63,239.8Z"/></g></g><g id="_Mirror_Repeat_2" data-name="&lt;Mirror Repeat&gt;"><g class="cls-5"><path class="cls-3" d="M-2,285.85a7.28,7.28,0,0,1,1.22,1.9,3.36,3.36,0,0,1-.51,2.32c-.65,1.37.93,3,.44,4.14-.58,1.38-.9,3-.38,3.87.63,1.12,0,1.63-.08,2.44-.18,1.8-.06,3.63-.06,5.6H241.85V303q0-28.55,0-57.08a6,6,0,0,1,1.3-4.17c-1.71-1.12-1.73-3.17-2.54-4.82-.13-.26-1.24-70.54-1.36-78.13a4,4,0,0,1,1.48-3.13c-1.42-1.87-2.23-10.6-1.54-12.32.56-1.38.11-3.16.11-4.76l.18-.25c.56-.84,1.77-1.14,1.8-2.49s-1.46-1.27-2.12-2c-.51-.55-1-1.07-1.78-1.79,0-3.3-.5-6.89.14-10.28s.27-6.9.48-10.34c0-.78.36-1.68-.46-2.4-.13-.11.28-.82.39-1.27.34-1.3,1.54-2.54.15-4-.22-.22.17-1.14.4-1.68a14.55,14.55,0,0,0,.85-6.18c-.13-1.92,0-3.85-.05-5.77-.06-1.28-.33-2.56-.52-3.94h-4c.49-2.72-3-25.18-3.16-26.27s-1.26-9.91-1-12.24.81.43-1-1.53a6.8,6.8,0,0,0-1,1.53c-.24.38-5.6,37.66-5.88,38.25-1.36.28-3-.06-4.46.24,0,2.67,0,5.12-.13,7.55-.14,2.27.36,4.24.06,6.62.81.65.67,1.52,1.41,2.11-.17.88-1.41.46-1.21,2.08a12.77,12.77,0,0,0,.46,2.28c1.29,3.51.41,25.16.66,25.88L216,135.21c-.61-.61-83.26-86.27-83.62-86.75a1.57,1.57,0,0,1,0-2c1.41-2.44-6.9-18.25-6.22-19.5s-.92-17.89.54-18.87c-1.7,0-2.75-8.32-4-8.32S123.26,8,121.87,8c0,1.35-.4,2.6.6,3.65,0,2.47.28,5-1,7.29-.14.26-.17.57-.3.84-1.4,2.88-1.4,2.88-1.28,6,0,.41,0,.83,0,1.26-1.32.31-2.18.91-1.93,2.38.19,1.09,0,2.14.51,3.32.72,1.58-.19,3.37-1,4.92-1.31,2.57-.72,5.29-.7,8,1,.84.35,2,.59,3.1-2.24,2-85.76,84.27-87.1,85.47-.12-1.78-2.79-5.43-2.85-6.52s.85-17.45.7-22.29a2.33,2.33,0,0,1,.31-1.15,2.61,2.61,0,0,0,0-2.62c-.51-1,1-4.45,1.44-5.24s-.4-1.58-.38-2.22c.07-2.28-.68-4.63.42-6.85.13-.26-.09-2.34.23-2.73-.83-2.2-2.42-2.39-4.46-2.09-.47-1.93-1.05-3.83-1.38-5.77-.24-1.45-3-24.84-3.24-27.85a2.16,2.16,0,0,1,.8-2.24,1.33,1.33,0,0,0,.26-1.94c-.59-1-1.84-1.66-2.61-1.38a9.71,9.71,0,0,0-1.68,1c.26.94-.33,2,.54,3.16A3.12,3.12,0,0,1,18.45,50c-1,3-2.17,12-2.41,13.4-.39,2.3-2.82,16.06-2.72,18.16.06,1.29-4.39,1.3-4.45,2.46-.17,3.66-1,7.27-.67,11,.13,1.33-.33,2.76,1.12,3.75.25.17.24,1,.08,1.45a17.37,17.37,0,0,1-1.31,2.28,3.94,3.94,0,0,1,1.45,3.75c-.15,2.13-.63,11.78-.67,14.49s0,5.54,0,8.4l-3.21,2.74c0,.31-.26,1.29,0,1.52,1.8,1.38,1.25,3.27,1.19,5s.4,3.5-.38,5.28A7.54,7.54,0,0,0,6.32,147a6.51,6.51,0,0,1-1.43,4.67,7.25,7.25,0,0,1,1.43,4.85c-.09,4.38-.41,58.27-1.13,58.88A1.25,1.25,0,0,0,5,216.58c1.31,2.51.44,5.18.55,7.77.06,1.52-1.41,3.05,0,4.63a8.18,8.18,0,0,0-.57.66,24.36,24.36,0,0,0-1.89,3.7A15.21,15.21,0,0,1,.9,236.91a2.52,2.52,0,0,0-.1,2.62.52.52,0,0,0,.22.22c.9.53.78,1.4.78,2.25,0,7.59-1.06,36.44-1.4,39C.18,282.64-1.15,284.16-2,285.85Z"/><line x1="226.93" y1="56.17" x2="227.07" y2="59.99"/><circle cx="19.75" cy="45.5" r="2.29"/><circle class="cls-3" cx="229.3" cy="47.54" r="2.29"/><path d="M16.28,61.94l-1.6,8.25Z"/><rect class="cls-4" x="90.87" y="239.55" width="63.22" height="66.6" transform="translate(244.97 545.69) rotate(180)"/><path class="cls-4" d="M90.87,239.8c0-16.56,26.52-37.11,31.61-37.11s31.62,20.55,31.62,37.11-14.16,30-31.62,30S90.87,256.37,90.87,239.8Z"/></g></g><path class="cls-3" d="M60.14,376c23.32,0,41.58,18.59,41.58,48.34S83.29,473,60.14,473c-13.86,0-23.83-6.25-29.07-14.53v13.18H2.17V346.61h28.9v44.12C36.31,382.28,46.62,376,60.14,376ZM51.52,401.2c-10.82,0-20.62,8.29-20.62,23.33s9.8,23.32,20.62,23.32c11,0,20.79-8.45,20.79-23.49S62.51,401.2,51.52,401.2Z"/><path class="cls-3" d="M158.83,473c-27.71,0-47.66-18.59-47.66-48.5S130.78,376,158.83,376c27.55,0,47,18.26,47,47a72.75,72.75,0,0,1-.51,8.45H139.9c1,12.33,8.62,18.08,17.92,18.08,8.11,0,12.67-4.06,15-9.13h30.76C199.06,458.84,182.32,473,158.83,473ZM140.07,415.4h36.17c0-10.31-8.11-16.22-17.74-16.22C149,399.18,141.76,404.92,140.07,415.4Z"/><path class="cls-3" d="M256.85,376c12.51,0,23.33,5.75,29.07,14.37V346.61h28.9V471.68h-28.9V458.16c-5.24,8.62-15.21,14.87-29.07,14.87-23.15,0-41.57-18.93-41.57-48.67S233.7,376,256.85,376Zm8.45,25.18c-10.81,0-20.62,8.12-20.62,23.16s9.81,23.49,20.62,23.49c11,0,20.62-8.28,20.62-23.32S276.29,401.2,265.3,401.2Z"/><path class="cls-3" d="M335.77,346.61h28.9V471.68h-28.9Z"/><path class="cls-3" d="M421.46,376c14,0,24,6.42,29.07,14.71V377.37h28.9v94.31h-28.9V458.33c-5.24,8.28-15.22,14.7-29.24,14.7-23,0-41.41-18.93-41.41-48.67S398.3,376,421.46,376Zm8.45,25.18c-10.82,0-20.62,8.12-20.62,23.16s9.8,23.49,20.62,23.49c11,0,20.62-8.28,20.62-23.32S440.89,401.2,429.91,401.2Z"/><path class="cls-3" d="M630.34,420.47c0-12.34-7.1-19.1-18.08-19.1s-18.09,6.76-18.09,19.1v51.21H565.44V420.47c0-12.34-7.1-19.1-18.08-19.1s-18.08,6.76-18.08,19.1v51.21h-28.9V377.37h28.9V389.2c5.57-7.6,15.21-12.84,27.54-12.84,14.2,0,25.69,6.25,32.11,17.58a38,38,0,0,1,31.78-17.58c23.32,0,38.36,14.87,38.36,40.22v55.1H630.34Z"/><path class="cls-3" d="M12.31,561.74H.31V549.06h12V525.74H27.69v23.32H51.86v12.68H27.69v54.59c0,9.13,3.38,12.34,12.84,12.34H51.86v13H38c-16.4,0-25.69-6.76-25.69-25.35Z"/><path class="cls-3" d="M78.89,516.61H94.27v45.81c6.09-9.81,17.58-15,30.59-15,20.62,0,37,13.19,37,39.72v54.59H146.67V589.29c0-18.93-10.31-28.56-25.86-28.56-15.72,0-26.54,9.8-26.54,29.74v51.21H78.89Z"/><path class="cls-3" d="M235.56,643.2c-26.37,0-45.8-18.59-45.8-48,0-29.23,18.76-47.66,45.8-47.66,26.87,0,44.45,18.93,44.45,44.28a83,83,0,0,1-.51,9.3h-74c1.18,18.76,14.36,29.07,30.08,29.07,13.86,0,22.65-7.1,26-17.07h16.56C273.42,630,258.54,643.2,235.56,643.2Zm-29.92-54.59h58.48c.17-18.08-13.35-28.05-29.24-28.05C219.84,560.56,207.33,570.53,205.64,588.61Z"/><path class="cls-3" d="M346.93,547.54c17.24,0,29.07,8.79,34.48,18.43V549.06H397v92.62H381.41V624.44c-5.58,10-17.58,18.76-34.65,18.76C322.09,643.2,303,623.77,303,595,303,566.13,322.09,547.54,346.93,547.54Zm3,13.35c-16.9,0-31.26,12.34-31.26,34.14s14.36,34.65,31.26,34.65S381.41,617,381.41,595.2C381.41,573.74,366.87,560.89,350,560.89Z"/><path class="cls-3" d="M434.81,561.74h-12V549.06h12V525.74h15.38v23.32h24.16v12.68H450.19v54.59c0,9.13,3.38,12.34,12.84,12.34h11.32v13H460.5c-16.4,0-25.69-6.76-25.69-25.35Z"/><path class="cls-3" d="M516.77,641.68H501.39V549.06h15.38v15.05C522,553.8,532,547.37,546.69,547.37v15.89h-4.06c-14.7,0-25.86,6.59-25.86,28.06Z"/><path class="cls-3" d="M612.93,643.2c-26.36,0-45.8-18.59-45.8-48,0-29.23,18.76-47.66,45.8-47.66,26.87,0,44.45,18.93,44.45,44.28a83,83,0,0,1-.51,9.3h-74c1.18,18.76,14.36,29.07,30.08,29.07,13.86,0,22.65-7.1,26-17.07h16.56C650.79,630,635.92,643.2,612.93,643.2ZM583,588.61h58.47c.17-18.08-13.35-28.05-29.23-28.05C597.21,560.56,584.71,570.53,583,588.61Z"/><path class="cls-3" d="M1023.55,666c-2.63-.48-5.25-1-7.89-1.43-28.85-4.93-48.39-26.93-50-56.1-.8-14.71,1.67-28.6,10-41,9.8-14.68,23.92-22.63,41-25.42,14-2.29,27.81-1.16,40.93,4.6,4.12,1.8,7.81,4.59,11.63,7a2.21,2.21,0,0,1,.75,2c-2.68,7.45-5.47,14.87-8.31,22.51a45.7,45.7,0,0,0-20.3-11c-14.4-3.44-27.62-1.43-38.12,9.91-7.18,7.74-9.25,17.42-8.92,27.67.25,7.6,2.21,14.77,6.82,21,8,10.82,19.22,14.7,32.27,14,11.25-.57,21.15-4.46,29.44-12.59.34.62.69,1.13.93,1.69,2.65,6.16,5.23,12.34,8,18.46a2.54,2.54,0,0,1-.72,3.4c-8.82,8.34-19.46,12.66-31.33,14.3-2.08.28-4.14.65-6.2,1Z"/><path class="cls-3" d="M1043.38,367.67h28.46c0,.57.09,1.05.09,1.52,0,24.66,0,49.32-.13,74-.08,9.46-1.77,18.66-6.89,26.9-5.91,9.52-14.64,15.23-25.3,18a70.08,70.08,0,0,1-37.84-.37c-17.33-5.1-27.31-16.84-29.94-34.67a105.55,105.55,0,0,1-1-14.87c-.11-22.5,0-45,0-67.5v-2.89h28.66v2.89c0,23,0,46,0,69a51.25,51.25,0,0,0,.91,10.13c2,9.51,9.43,15.26,20,15.75,12.81.6,22-7.35,22.59-20.15.46-9.27.39-18.58.43-27.87C1043.42,401,1043.38,384.45,1043.38,367.67Z"/><path class="cls-3" d="M832.89,488.3V367.72h78v22.47H861.34v24.67h46.82v22.57H861.27v27.85h51.17v23Z"/><path class="cls-3" d="M859.79,565.32h-31V543h90.31v22.2H888.21v98.26H859.79Z"/><line class="cls-6" x1="746.5" y1="296.5" x2="746.5" y2="696.5"/></g></svg>