<svg xmlns="http://www.w3.org/2000/svg" viewBox="0 0 1364.73 380"><defs><style>.cls-1{fill:#fff;}.cls-2{fill:none;stroke:#fff;stroke-miterlimit:10;stroke-width:3px;}</style></defs><g id="Layer_2" data-name="Layer 2"><g id="Layer_3" data-name="Layer 3"><path class="cls-1" d="M119.93,29.31c.68,1.92,1.23,3.9,2.09,5.73a12.17,12.17,0,0,1,1.09,6.08c-.19,3.3.37,6.65.09,9.93-.42,5.09.89,9.66,3,14.19a67.05,67.05,0,0,1,3,8.22,13.73,13.73,0,0,1,.07,2.81,5.51,5.51,0,0,0,.45,2,6.83,6.83,0,0,0,1.3,1.56q8.25,8.52,16.52,17Q157.26,106.92,167,117l12.64,13.11q10.11,10.49,20.23,21c4,4.14,8,8.3,12,12.43,1.12,1.15,1.26,1,2.64.23A3.78,3.78,0,0,0,216.4,160c0-4.48.19-8.95.17-13.42,0-2.79-.25-5.58-.44-8.37a17.59,17.59,0,0,0-.5-2.46,3.32,3.32,0,0,1,.44-3.18,1.45,1.45,0,0,0-.08-1.29,6.66,6.66,0,0,1-.84-3.68c0-3.35,0-6.71,0-10.07,0-1.62.25-1.84,1.9-1.87h.72c1.72,0,1.93-.17,2.18-1.85,1.05-6.83,2.07-13.67,3.1-20.5Q224,87.09,225,80.86a3.05,3.05,0,0,0-.43-2.61,1.86,1.86,0,0,1,.16-2.62,2.06,2.06,0,0,1,2.63-.44,1.76,1.76,0,0,1,.9,2.36c-1.43,2.82-.5,5.67-.17,8.45.89,7.45,2,14.88,3,22.33.28,2.06.46,4.13.62,6.2.07,1,.5,1.38,1.43,1.35,2.58-.07,2.71,0,2.84,2.79.17,3.46.07,6.92,0,10.38a6.08,6.08,0,0,1-.49,2.09,3.67,3.67,0,0,0-.15,3.11,2.49,2.49,0,0,1-.11,1.73,9.88,9.88,0,0,0-.51,3.83c.08,3.74-.2,7.49-.32,11.24-.1,3.11-.22,6.22-.23,9.33,0,1.68,1.18,2.64,2.5,3.42,1.73,1,1.81,1.59.49,3.14a3.5,3.5,0,0,0-.85,1.64c-.24,1.85-.42,3.72-.49,5.59a28.23,28.23,0,0,0,1.19,9.71,2.36,2.36,0,0,1-.26,2.24c-.93,1.38-.75,3-.67,4.54.05,1.16.15,2.31.16,3.47.1,8.43.17,16.86.27,25.29.06,4.75.15,9.5.24,14.25.15,9,.24,18.06.53,27.08.08,2.63-.1,5.33,1,7.91s1,2.65.52,5.39a14.61,14.61,0,0,0-.13,2.39v55.63c0,.48,0,1,0,1.44,0,1.58-.21,1.79-1.82,1.79H153c-1.72,0-1.88-.18-1.88-2.1,0-20.94-.06-41.88,0-62.83a25.48,25.48,0,0,0-3.58-13,65.37,65.37,0,0,0-13.79-16.31,58,58,0,0,0-11.59-8.26,4.54,4.54,0,0,0-4.87,0c-3.15,2-6.36,4-9.3,6.33a66,66,0,0,0-14.79,16.07,29,29,0,0,0-5,16.45c.14,20.19.05,40.37.05,60.55,0,.52,0,1,0,1.56,0,1.05-.41,1.58-1.49,1.53-.36,0-.72,0-1.08,0H3.3c-2.57,0-2.57,0-2.57-2.6q0-28.54,0-57.07A28.87,28.87,0,0,0,0,271.79a2,2,0,0,1,.19-1.29,11.12,11.12,0,0,0,1.94-6.06q.12-10.37.26-20.73c.06-4.76.15-9.51.23-14.26l.24-14.74L3.13,200c.07-3.76.22-7.51.19-11.26a14,14,0,0,0-.81-3.06,2.67,2.67,0,0,1-.13-1.33,26.68,26.68,0,0,0,.87-12.55,9.07,9.07,0,0,1,.06-2.38,2.75,2.75,0,0,0-.92-2.46c-1.34-1.23-1.18-2.18.34-3.1a5,5,0,0,0,2.62-4.34c.37-6.25-.9-12.41-.73-18.64a1,1,0,0,1,0-.24A8.62,8.62,0,0,0,4,135.16a.94.94,0,0,1,0-.7c.82-1.36.22-2.62-.2-3.91a6.06,6.06,0,0,1-.39-1.87c0-3.63,0-7.26.17-10.89.07-1.71.39-1.86,2.09-1.89,2.1,0,2-.13,2.24-2.15.6-5.72,1.31-11.43,2-17.14.61-4.87,1.31-9.74,1.92-14.61a5.8,5.8,0,0,0-.56-4.07,1.83,1.83,0,0,1,.52-2.47,2,2,0,0,1,2.66-.14,1.77,1.77,0,0,1,.7,2.42c-1.11,1.64-.65,3.28-.39,5q2.3,15.24,4.58,30.47c.37,2.45.39,2.45,2.83,2.49,1.73,0,2,.24,2,1.93,0,3.59.05,7.18,0,10.76a8,8,0,0,1-.67,2.75,1.55,1.55,0,0,0,.18,1.84,2,2,0,0,1,.36,1.44c-1.79,7.74-.78,15.61-1,23.41,0,1.12,0,2.24,0,3.36s2.32,3.32,3.39,3.23a2,2,0,0,0,1.11-.63Q35,156,42.46,148.19c2.44-2.53,4.87-5.07,7.32-7.59,3.76-3.87,7.56-7.7,11.31-11.58Q71,118.78,80.9,108.5q6.19-6.44,12.38-12.86,8.18-8.52,16.34-17a2.8,2.8,0,0,0,.72-2.49,9.11,9.11,0,0,1,.33-3.86c1.46-4.11,3.08-8.15,4.7-12.19a12.25,12.25,0,0,0,.84-5.24c-.14-3.47.13-6.94.18-10.42,0-1.87-.09-3.74-.12-5.61a3.94,3.94,0,0,1,.09-1.29q1.11-3.11,2.31-6.15c.28-.71.67-1.36,1-2Z"/></g><g id="the_line" data-name="the line"><path class="cls-1" d="M352.59,69.52c23.33,0,41.58,18.59,41.58,48.34s-18.42,48.67-41.58,48.67c-13.86,0-23.83-6.25-29.07-14.53v13.18h-28.9V40.12h28.9V84.23C328.76,75.78,339.07,69.52,352.59,69.52ZM344,94.7c-10.81,0-20.61,8.29-20.61,23.33s9.8,23.32,20.61,23.32c11,0,20.79-8.45,20.79-23.49S355,94.7,344,94.7Z"/><path class="cls-1" d="M451.29,166.53c-27.72,0-47.66-18.59-47.66-48.5s19.6-48.51,47.66-48.51c27.54,0,47,18.26,47,47a72.75,72.75,0,0,1-.51,8.45h-65.4c1,12.33,8.62,18.08,17.91,18.08,8.12,0,12.68-4.06,15-9.13h30.76C491.51,152.34,474.78,166.53,451.29,166.53ZM432.53,108.9h36.16c0-10.31-8.11-16.22-17.74-16.22C441.48,92.68,434.22,98.42,432.53,108.9Z"/><path class="cls-1" d="M549.31,69.52c12.5,0,23.32,5.75,29.07,14.37V40.12h28.89V165.18H578.38V151.66c-5.24,8.62-15.22,14.87-29.07,14.87-23.16,0-41.58-18.93-41.58-48.67S526.15,69.52,549.31,69.52Zm8.45,25.18c-10.82,0-20.62,8.12-20.62,23.16s9.8,23.49,20.62,23.49c11,0,20.62-8.28,20.62-23.32S568.74,94.7,557.76,94.7Z"/><path class="cls-1" d="M628.23,40.12h28.9V165.18h-28.9Z"/><path class="cls-1" d="M713.91,69.52c14,0,24,6.42,29.07,14.71V70.87h28.9v94.31H743V151.83c-5.24,8.28-15.21,14.7-29.24,14.7-23,0-41.41-18.93-41.41-48.67S690.76,69.52,713.91,69.52Zm8.45,25.18c-10.82,0-20.62,8.12-20.62,23.16s9.8,23.49,20.62,23.49c11,0,20.62-8.28,20.62-23.32S733.35,94.7,722.36,94.7Z"/><path class="cls-1" d="M922.79,114c0-12.34-7.09-19.1-18.08-19.1s-18.08,6.76-18.08,19.1v51.21H857.9V114c0-12.34-7.1-19.1-18.09-19.1s-18.08,6.76-18.08,19.1v51.21h-28.9V70.87h28.9V82.7c5.58-7.6,15.21-12.84,27.55-12.84,14.19,0,25.69,6.25,32.11,17.58a37.93,37.93,0,0,1,31.77-17.58c23.32,0,38.37,14.87,38.37,40.22v55.1H922.79Z"/><path class="cls-1" d="M304.76,255.24h-12V242.56h12V219.24h15.38v23.32h24.17v12.68H320.14v54.59c0,9.13,3.38,12.34,12.85,12.34h11.32v13H330.45c-16.39,0-25.69-6.76-25.69-25.35Z"/><path class="cls-1" d="M371.35,210.12h15.38v45.8c6.08-9.81,17.57-15,30.59-15,20.62,0,37,13.19,37,39.72v54.59H439.12V282.79c0-18.93-10.31-28.56-25.86-28.56-15.72,0-26.53,9.8-26.53,29.74v51.21H371.35Z"/><path class="cls-1" d="M528,336.7c-26.36,0-45.8-18.59-45.8-48C482.21,259.47,501,241,528,241c26.87,0,44.45,18.93,44.45,44.28a83,83,0,0,1-.51,9.3h-74c1.18,18.76,14.37,29.07,30.08,29.07,13.86,0,22.65-7.1,26-17.07H570.6C565.87,323.52,551,336.7,528,336.7ZM498.1,282.11h58.47c.17-18.08-13.35-28.05-29.23-28.05C512.3,254.06,499.79,264,498.1,282.11Z"/><path class="cls-1" d="M639.38,241c17.24,0,29.07,8.79,34.48,18.43V242.56h15.55v92.62H673.86V317.94c-5.58,10-17.58,18.76-34.65,18.76-24.67,0-43.77-19.43-43.77-48.17C595.44,259.63,614.54,241,639.38,241Zm3,13.35c-16.9,0-31.26,12.34-31.26,34.14s14.36,34.65,31.26,34.65,31.44-12.67,31.44-34.48C673.86,267.24,659.32,254.39,642.42,254.39Z"/><path class="cls-1" d="M727.26,255.24h-12V242.56h12V219.24h15.38v23.32h24.17v12.68H742.64v54.59c0,9.13,3.38,12.34,12.84,12.34h11.33v13H753c-16.39,0-25.69-6.76-25.69-25.35Z"/><path class="cls-1" d="M809.23,335.18H793.85V242.56h15.38v15.05c5.24-10.31,15.21-16.74,29.91-16.74v15.89h-4.06c-14.7,0-25.85,6.59-25.85,28.06Z"/><path class="cls-1" d="M905.39,336.7c-26.37,0-45.81-18.59-45.81-48,0-29.23,18.76-47.66,45.81-47.66,26.87,0,44.44,18.93,44.44,44.28a85.43,85.43,0,0,1-.5,9.3h-74c1.18,18.76,14.37,29.07,30.09,29.07,13.85,0,22.64-7.1,26-17.07H948C943.24,323.52,928.37,336.7,905.39,336.7Zm-29.92-54.59H934c.17-18.08-13.35-28.05-29.24-28.05C889.67,254.06,877.16,264,875.47,282.11Z"/><line class="cls-2" x1="1038.95" x2="1038.95" y2="380"/><path class="cls-1" d="M1316.15,339c-2.62-.47-5.25-1-7.88-1.42-28.85-4.93-48.4-26.94-50-56.11-.8-14.7,1.67-28.59,10-41,9.79-14.67,23.92-22.63,41-25.42,14-2.28,27.82-1.15,40.93,4.6,4.12,1.81,7.82,4.6,11.64,7.05a2.22,2.22,0,0,1,.75,1.95c-2.68,7.46-5.47,14.87-8.31,22.51a45.78,45.78,0,0,0-20.31-11c-14.39-3.43-27.61-1.43-38.12,9.91-7.17,7.74-9.25,17.42-8.91,27.67.25,7.6,2.21,14.78,6.81,21,8,10.82,19.23,14.7,32.28,14,11.25-.57,21.14-4.46,29.43-12.59.35.62.7,1.14.94,1.69,2.65,6.16,5.23,12.35,8,18.47a2.53,2.53,0,0,1-.72,3.39c-8.83,8.35-19.46,12.66-31.34,14.3-2.07.29-4.13.65-6.2,1Z"/><path class="cls-1" d="M1336,40.64h28.45c0,.58.09,1,.09,1.53,0,24.65.06,49.31-.13,74-.07,9.46-1.77,18.66-6.88,26.89-5.92,9.52-14.65,15.23-25.3,18a70.18,70.18,0,0,1-37.84-.38c-17.33-5.1-27.31-16.84-29.94-34.67a105.56,105.56,0,0,1-1-14.87c-.1-22.5,0-45,0-67.5V40.71H1292V43.6c0,23,0,46,0,69a50.61,50.61,0,0,0,.92,10.14c2,9.5,9.43,15.25,20,15.74,12.81.6,22-7.35,22.59-20.14.46-9.28.39-18.58.42-27.87C1336,73.94,1336,57.43,1336,40.64Z"/><path class="cls-1" d="M1125.5,161.28V40.7h78V63.16H1154V87.84h46.82V110.4h-46.89v27.86h51.17v23Z"/><path class="cls-1" d="M1152.39,238.29h-31V216h90.31v22.2h-30.85v98.25h-28.42Z"/></g></g></svg>